<?xml version="1.0" encoding="UTF-8"?>
<svg width="24" height="24" viewBox="0 0 24 24" fill="none" xmlns="http://www.w3.org/2000/svg">
    <path d="M19.27 5.33C17.94 4.71 16.5 4.26 15 4C14.85 4.29 14.68 4.69 14.55 5.01C12.95 4.77 11.37 4.77 9.8 5.01C9.67 4.69 9.49 4.29 9.34 4C7.83 4.26 6.39 4.71 5.06 5.33C2.46 9.42 1.73 13.41 2.1 17.34C3.83 18.64 5.5 19.42 7.14 19.94C7.57 19.35 7.95 18.72 8.28 18.05C7.63 17.81 7.01 17.51 6.42 17.14C6.56 17.04 6.69 16.93 6.82 16.82C10.39 18.49 14.24 18.49 17.75 16.82C17.88 16.93 18.01 17.04 18.15 17.14C17.56 17.51 16.93 17.81 16.28 18.05C16.61 18.72 16.99 19.35 17.42 19.94C19.06 19.42 20.74 18.64 22.47 17.34C22.9 12.81 21.76 8.86 19.27 5.33ZM8.57 14.81C7.55 14.81 6.71 13.87 6.71 12.72C6.71 11.57 7.53 10.63 8.57 10.63C9.61 10.63 10.45 11.57 10.43 12.72C10.43 13.87 9.61 14.81 8.57 14.81ZM15.43 14.81C14.41 14.81 13.57 13.87 13.57 12.72C13.57 11.57 14.39 10.63 15.43 10.63C16.47 10.63 17.31 11.57 17.29 12.72C17.29 13.87 16.47 14.81 15.43 14.81Z" fill="white"/>
</svg> 